#N canvas 1858 227 1366 685 12;
#N canvas 3 -13 1366 677 disco 1;
#X obj 88 457 *~;
#X obj 86 286 noise~;
#X obj 185 908 dac~ 1 2 3 4;
#X obj 269 193 metro;
#X floatatom 304 166 5 0 0 0 - - - 0;
#X obj 269 166 tgl 15 0 empty empty empty 0 -6 0 8 #fcfcfc #000000 #000000 0 1;
#X obj 308 235 del;
#X obj 154 357 line~;
#X obj 154 381 abs~;
#X obj 153 409 *~ -1;
#X obj 211 458 *~;
#X obj 277 358 line~;
#X obj 277 382 abs~;
#X obj 276 410 *~ -1;
#X obj 320 459 *~;
#X obj 386 359 line~;
#X obj 386 383 abs~;
#X obj 385 411 *~ -1;
#X obj 422 459 *~;
#X obj 488 359 line~;
#X obj 488 383 abs~;
#X obj 487 411 *~ -1;
#X obj 382 261 del;
#X obj 401 231 / 4;
#X obj 485 287 del;
#X obj 504 257 / 4;
#X obj 154 308 f;
#X obj 277 309 f;
#X obj 386 310 f;
#X obj 488 312 f;
#X text 359 161 speed;
#X text 546 373 creates back and forth movement;
#X text 547 395 between 0 and 1;
#X obj 280 130 hsl 128 30 0 2000 0 0 empty empty empty -2 -8 0 10 #fcfcfc #000000 #000000 0 1;
#X obj 444 194 / 2;
#X obj 327 205 / 4;
#X text -136 196 3.9.3.1. Spatial Quadro;
#X obj 832 -17 vsl 50 128 0 0.1 0 0 empty empty empty 0 -9 0 10 #fc8000 #000000 #000000 0 1;
#X text -82 233 www.pd-tutorial.com;
#X obj 87 323 *~ 0.2;
#X obj 969 631 +~;
#X obj 968 583 +~;
#X obj 968 608 +~;
#X obj 1092 566 +~;
#X obj 969 662 +~;
#X obj 970 685 +~;
#X obj 968 562 +~;
#X obj 1199 708 osc~ 493.883;
#X obj 1168 480 +~;
#X obj 1079 478 +~;
#X obj 977 450 +~;
#X text 1101 399 comment;
#X obj 939 480 +~;
#X obj 894 458 +~;
#X obj 939 511 +~;
#X obj 969 540 +~;
#X obj 1115 695 osc~ 379.91;
#X obj 1196 602 osc~ 292.238;
#X obj 1096 598 osc~ 224.798;
#X obj 1181 519 osc~ 172.922;
#X obj 1093 519 osc~ 133.017;
#X obj 1169 428 osc~ 102.321;
#X obj 1079 407 osc~ 78.708;
#X obj 977 389 osc~ 60.544;
#X obj 894 389 osc~ 46.572;
#X obj 1115 734 +~;
#X obj 1196 656 +~;
#X obj 1095 656 +~;
#X obj 1182 568 +~;
#X obj 1198 752 +~;
#X obj 909 422 osc~ 47;
#X obj 992 423 osc~ 61;
#X obj 1184 449 osc~ 103;
#X obj 1108 538 osc~ 134;
#X obj 1196 542 osc~ 173;
#X obj 1113 620 osc~ 225;
#X obj 1212 625 osc~ 293;
#X obj 1134 715 osc~ 380;
#X obj 1212 728 osc~ 494;
#X obj 1094 439 osc~ 79;
#X text 867 339 Babel [493.883 hz/ 1.3];
#N canvas 189 75 660 424 chord 0;
#X obj 87 97 -~ 0.5;
#X obj 87 146 clip~ -0.5 0.5;
#X obj 87 169 cos~;
#X obj 91 315 outlet~;
#X obj 221 97 -~ 0.5;
#X obj 221 146 clip~ -0.5 0.5;
#X obj 221 169 cos~;
#X obj 356 100 -~ 0.5;
#X obj 356 149 clip~ -0.5 0.5;
#X obj 356 172 cos~;
#X obj 491 100 -~ 0.5;
#X obj 491 149 clip~ -0.5 0.5;
#X obj 491 172 cos~;
#X text 147 32 test sound for phaser;
#X obj 91 285 *~ 0.3;
#X obj 87 122 *~ 1;
#X obj 221 122 *~ 1;
#X obj 356 125 *~ 1;
#X obj 491 125 *~ 1;
#X obj 91 252 hip~ 3;
#X obj 87 74 phasor~ 79;
#X obj 221 74 phasor~ 81;
#X obj 356 77 phasor~ 83;
#X obj 491 77 phasor~ 85;
#X connect 0 0 15 0;
#X connect 1 0 2 0;
#X connect 2 0 19 0;
#X connect 4 0 16 0;
#X connect 5 0 6 0;
#X connect 6 0 19 0;
#X connect 7 0 17 0;
#X connect 8 0 9 0;
#X connect 9 0 19 0;
#X connect 10 0 18 0;
#X connect 11 0 12 0;
#X connect 12 0 19 0;
#X connect 14 0 3 0;
#X connect 15 0 1 0;
#X connect 16 0 5 0;
#X connect 17 0 8 0;
#X connect 18 0 11 0;
#X connect 19 0 14 0;
#X connect 20 0 0 0;
#X connect 21 0 4 0;
#X connect 22 0 7 0;
#X connect 23 0 10 0;
#X restore 487 496 pd chord;
#X obj 509 550 rpole~;
#X obj 509 525 rzero_rev~;
#X obj 509 599 rpole~;
#X obj 509 574 rzero_rev~;
#X obj 509 647 rpole~;
#X obj 509 622 rzero_rev~;
#X obj 509 696 rpole~;
#X obj 509 671 rzero_rev~;
#X obj 486 726 +~;
#X obj 606 577 phasor~ 0.3;
#X obj 606 609 expr~ 1 - 0.03 - 0.6*abs($v1-0.5)*abs($v1-0.5);
#X text 374 769 CORPUS INMATERIAL \, Miguel Oliveros et al. Madrid 2014;
#X floatatom 647 158 5 0 0 0 - - - 0;
#X obj 647 176 osc~ \$1;
#X obj 641 122 hsl 128 30 0 2218 0 0 empty empty empty -2 -8 0 10 #fcfcfc #000000 #000000 0 1;
#X obj 657 212 *~;
#X msg 154 334 -1 \, 1 \$1;
#X msg 277 335 -1 \, 1 \$1;
#X msg 386 336 -1 \, 1 \$1;
#X msg 488 336 -1 \, 1 \$1;
#X obj 959 714 *~ 0.01;
#X obj 378 655 *~ 0.01;
#X obj 1095 -85 +~;
#X obj 1096 -364 +~;
#X obj 1096 -213 +~;
#X obj 1095 117 +~;
#X obj 1095 90 +~;
#X obj 1096 142 +~;
#X obj 981 -75 +~;
#X obj 981 -363 +~;
#X obj 997 -271 +~;
#X obj 995 -140 +~;
#X obj 981 -224 +~;
#X obj 994 12 +~;
#X obj 980 130 +~;
#X obj 995 -392 osc~ 35;
#X obj 997 -325 osc~ 69.2957;
#X obj 1011 -301 osc~ 70;
#X obj 995 -201 osc~ 138.591;
#X obj 1010 -180 osc~ 139;
#X obj 994 -51 osc~ 277.183;
#X obj 1011 -30 osc~ 278;
#X obj 1111 -390 osc~ 555;
#X obj 1111 -267 +~;
#X obj 1111 -320 osc~ 1108.73;
#X obj 1126 -293 osc~ 1109;
#X obj 1111 -117 +~;
#X obj 1111 -170 osc~ 2217.46;
#X obj 1126 -143 osc~ 2218;
#X text 1173 -36 ALL Hz in D♭;
#X text 1174 -15 [Hz= 190.533 / 1.618];
#X msg -66 528 start;
#X msg -211 478 stop;
#X msg -252 478 print;
#X text -222 523 1;
#X text -83 524 2;
#X text -213 498 CAMBIAR NOMBRE FICHERO CADA NUEVA REC.;
#X text 250 162 ON;
#X floatatom 831 165 5 0 0 0 - - - 0;
#X text 296 108 controlador manual;
#X text 652 103 controlador manual;
#X text 837 143 controlador manual;
#X obj -79 651 writesf~ 4;
#X text 6 196 Johannes Kreidler;
#X msg -330 -154 stop;
#X floatatom -281 -342 5 0 0 0 - - - 0;
#X msg -280 -248 open BASS.wav \, 1;
#X msg -258 -212 open LOFI.wav \, 1;
#X text -232 -343 entorno 475 msec;
#X obj 117 -451 bng 15 250 50 0 empty empty empty 17 7 0 10 #fcfcfc #000000 #000000;
#X obj 152 433 +~ 2.5;
#X obj 275 434 +~ 2.5;
#X obj 384 435 +~ 2.5;
#X obj 486 435 +~ 2.5;
#X obj -286 -401 metro 750;
#X obj -69 -396 metro 750;
#X floatatom -61 -327 5 0 0 0 - - - 0;
#X obj -61 -349 random 1;
#X obj -60 -301 sel 0 1;
#X obj -74 11 readsf~ 2;
#X msg -65 -208 open kick.wav \, 1;
#X msg -227 -183 open VIOLIN.wav \, 1;
#X floatatom 93 -327 5 0 0 0 - - - 0;
#X obj 93 -349 random 1;
#X obj 85 -396 metro 1500;
#X msg 89 -208 open snare.wav \, 1;
#X obj 94 -301 sel 0;
#X obj 88 9 readsf~ 1;
#X floatatom 256 -323 5 0 0 0 - - - 0;
#X obj 257 -297 sel 0;
#X msg 246 -156 open WILHELM.wav \, 1;
#X obj 248 -392 metro 3500;
#X obj 256 -345 random 2;
#X obj 247 -66 readsf~ 2;
#X obj 439 -398 metro 1500;
#X obj 444 -346 random 1;
#X obj 444 -321 0;
#X obj 444 -296 sel 0;
#X msg 446 -193 open SINTE.wav \, 1;
#X obj 447 -108 readsf~ 1;
#X obj 413 36 *~;
#X obj 472 -53 hsl 162 19 0 127 0 0 empty empty empty -2 -10 0 12 #fcfcfc #000000 #000000 0 1;
#X obj -315 -8 *~;
#X obj -258 -20 hsl 162 19 0 127 0 0 empty empty empty -2 -10 0 12 #fcfcfc #000000 #000000 0 1;
#X obj -281 -364 random 4;
#X obj -280 -316 sel 0 1 2 3;
#X obj -285 -54 readsf~ 4;
#X msg -205 526 rave_alien_v1.wav;
#X connect 0 0 2 0;
#X connect 0 0 144 0;
#X connect 0 0 144 1;
#X connect 0 0 144 2;
#X connect 0 0 144 3;
#X connect 3 0 6 0;
#X connect 3 0 26 0;
#X connect 4 0 3 1;
#X connect 4 0 23 0;
#X connect 4 0 25 0;
#X connect 4 0 34 0;
#X connect 4 0 35 0;
#X connect 5 0 3 0;
#X connect 6 0 22 0;
#X connect 6 0 27 0;
#X connect 6 0 28 0;
#X connect 6 0 29 0;
#X connect 7 0 8 0;
#X connect 8 0 9 0;
#X connect 9 0 152 0;
#X connect 10 0 2 1;
#X connect 10 0 144 1;
#X connect 10 0 144 0;
#X connect 10 0 144 2;
#X connect 10 0 144 3;
#X connect 11 0 12 0;
#X connect 12 0 13 0;
#X connect 13 0 153 0;
#X connect 14 0 2 2;
#X connect 14 0 144 2;
#X connect 14 0 144 0;
#X connect 14 0 144 1;
#X connect 14 0 144 3;
#X connect 15 0 16 0;
#X connect 16 0 17 0;
#X connect 17 0 154 0;
#X connect 18 0 2 3;
#X connect 18 0 144 3;
#X connect 18 0 144 2;
#X connect 18 0 144 1;
#X connect 18 0 144 0;
#X connect 19 0 20 0;
#X connect 20 0 21 0;
#X connect 21 0 155 0;
#X connect 22 0 24 0;
#X connect 23 0 22 1;
#X connect 25 0 24 1;
#X connect 26 0 98 0;
#X connect 27 0 99 0;
#X connect 28 0 100 0;
#X connect 29 0 101 0;
#X connect 33 0 4 0;
#X connect 34 0 29 1;
#X connect 34 0 28 1;
#X connect 34 0 27 1;
#X connect 34 0 26 1;
#X connect 35 0 6 1;
#X connect 37 0 97 1;
#X connect 37 0 140 0;
#X connect 39 0 0 0;
#X connect 39 0 10 0;
#X connect 39 0 14 1;
#X connect 39 0 18 0;
#X connect 40 0 44 0;
#X connect 41 0 42 0;
#X connect 42 0 40 0;
#X connect 43 0 46 1;
#X connect 44 0 45 0;
#X connect 45 0 102 0;
#X connect 46 0 41 0;
#X connect 47 0 69 0;
#X connect 48 0 55 1;
#X connect 49 0 54 1;
#X connect 52 0 54 0;
#X connect 54 0 55 0;
#X connect 55 0 46 0;
#X connect 56 0 65 0;
#X connect 57 0 66 0;
#X connect 58 0 67 0;
#X connect 59 0 68 0;
#X connect 60 0 43 0;
#X connect 61 0 48 0;
#X connect 62 0 49 0;
#X connect 63 0 50 0;
#X connect 64 0 53 0;
#X connect 65 0 44 1;
#X connect 66 0 40 1;
#X connect 67 0 42 1;
#X connect 68 0 41 1;
#X connect 69 0 45 1;
#X connect 70 0 53 1;
#X connect 71 0 50 1;
#X connect 72 0 48 1;
#X connect 73 0 43 1;
#X connect 74 0 68 1;
#X connect 75 0 67 1;
#X connect 76 0 66 1;
#X connect 77 0 65 1;
#X connect 78 0 69 1;
#X connect 79 0 49 1;
#X connect 81 0 83 0;
#X connect 81 0 90 0;
#X connect 82 0 85 0;
#X connect 83 0 82 0;
#X connect 84 0 87 0;
#X connect 85 0 84 0;
#X connect 86 0 89 0;
#X connect 87 0 86 0;
#X connect 88 0 90 1;
#X connect 89 0 88 0;
#X connect 90 0 103 0;
#X connect 91 0 92 0;
#X connect 92 0 83 1;
#X connect 92 0 82 1;
#X connect 92 0 85 1;
#X connect 92 0 84 1;
#X connect 92 0 87 1;
#X connect 92 0 86 1;
#X connect 92 0 89 1;
#X connect 92 0 88 1;
#X connect 94 0 95 0;
#X connect 95 0 97 0;
#X connect 96 0 94 0;
#X connect 97 0 0 0;
#X connect 97 0 10 0;
#X connect 97 0 14 0;
#X connect 97 0 18 0;
#X connect 98 0 7 0;
#X connect 99 0 11 0;
#X connect 100 0 15 0;
#X connect 101 0 19 0;
#X connect 102 0 18 0;
#X connect 102 0 14 0;
#X connect 102 0 10 0;
#X connect 102 0 0 0;
#X connect 103 0 0 0;
#X connect 103 0 10 0;
#X connect 103 0 14 0;
#X connect 103 0 18 0;
#X connect 104 0 108 0;
#X connect 105 0 106 0;
#X connect 106 0 104 0;
#X connect 107 0 109 0;
#X connect 108 0 107 0;
#X connect 109 0 103 0;
#X connect 110 0 116 0;
#X connect 111 0 114 0;
#X connect 112 0 114 1;
#X connect 113 0 110 1;
#X connect 114 0 110 0;
#X connect 115 0 116 1;
#X connect 116 0 103 0;
#X connect 117 0 111 1;
#X connect 118 0 112 0;
#X connect 119 0 112 1;
#X connect 120 0 113 0;
#X connect 121 0 113 1;
#X connect 122 0 115 0;
#X connect 123 0 115 1;
#X connect 124 0 105 1;
#X connect 126 0 125 0;
#X connect 127 0 125 1;
#X connect 129 0 128 0;
#X connect 130 0 128 1;
#X connect 133 0 144 0;
#X connect 134 0 144 0;
#X connect 135 0 144 0;
#X connect 146 0 188 0;
#X connect 146 0 169 0;
#X connect 146 0 175 0;
#X connect 146 0 181 0;
#X connect 146 0 161 0;
#X connect 147 0 187 0;
#X connect 148 0 188 0;
#X connect 149 0 188 0;
#X connect 151 0 157 0;
#X connect 151 0 166 0;
#X connect 151 0 173 0;
#X connect 151 0 176 0;
#X connect 151 0 156 0;
#X connect 152 0 0 1;
#X connect 153 0 10 1;
#X connect 154 0 14 1;
#X connect 155 0 18 1;
#X connect 156 0 186 0;
#X connect 157 0 159 0;
#X connect 158 0 160 0;
#X connect 159 0 158 0;
#X connect 160 0 162 0;
#X connect 161 0 2 0;
#X connect 161 0 2 1;
#X connect 161 0 2 2;
#X connect 161 0 2 3;
#X connect 161 1 2 3;
#X connect 161 1 2 0;
#X connect 161 1 2 2;
#X connect 161 1 2 1;
#X connect 161 2 2 3;
#X connect 162 0 161 0;
#X connect 163 0 188 0;
#X connect 164 0 168 0;
#X connect 165 0 164 0;
#X connect 166 0 165 0;
#X connect 167 0 169 0;
#X connect 168 0 167 0;
#X connect 169 0 0 0;
#X connect 169 0 10 0;
#X connect 169 0 14 0;
#X connect 169 0 18 0;
#X connect 170 0 171 0;
#X connect 171 0 172 0;
#X connect 172 0 175 0;
#X connect 173 0 174 0;
#X connect 174 0 170 0;
#X connect 175 0 2 0;
#X connect 175 0 2 1;
#X connect 175 0 2 3;
#X connect 175 0 2 2;
#X connect 175 1 2 0;
#X connect 175 1 2 1;
#X connect 175 1 2 2;
#X connect 175 1 2 3;
#X connect 176 0 177 0;
#X connect 177 0 178 0;
#X connect 178 0 179 0;
#X connect 179 0 180 0;
#X connect 180 0 181 0;
#X connect 181 0 182 0;
#X connect 182 0 0 0;
#X connect 182 0 10 0;
#X connect 182 0 14 0;
#X connect 182 0 18 0;
#X connect 183 0 182 1;
#X connect 184 0 0 0;
#X connect 184 0 10 0;
#X connect 184 0 14 0;
#X connect 184 0 18 0;
#X connect 185 0 184 1;
#X connect 186 0 147 0;
#X connect 187 1 148 0;
#X connect 187 2 149 0;
#X connect 187 3 163 0;
#X connect 188 0 184 0;
#X connect 188 1 184 0;
#X connect 188 2 184 0;
#X connect 188 3 184 0;
#X connect 188 4 184 0;
#X connect 189 0 144 0;
#X restore 22 44 pd disco de acrecion;
#N canvas 52 52 450 300 META 0;
#X restore 20 14 pd META;
